<?xml version="1.0" encoding="UTF-8" standalone="no"?>
<!-- Created with Inkscape (http://www.inkscape.org/) -->

<svg
   xmlns:dc="http://purl.org/dc/elements/1.1/"
   xmlns:cc="http://creativecommons.org/ns#"
   xmlns:rdf="http://www.w3.org/1999/02/22-rdf-syntax-ns#"
   xmlns:svg="http://www.w3.org/2000/svg"
   xmlns="http://www.w3.org/2000/svg"
   xmlns:sodipodi="http://sodipodi.sourceforge.net/DTD/sodipodi-0.dtd"
   xmlns:inkscape="http://www.inkscape.org/namespaces/inkscape"
   id="svg3004"
   version="1.1"
   inkscape:version="0.48.4 r9939"
   width="1052.3625"
   height="744.1"
   xml:space="preserve"
   sodipodi:docname="LocalClustering.ai"
   inkscape:export-filename="/home/ricky/Rlim/Presentations/Images/LocalClustering.png"
   inkscape:export-xdpi="250"
   inkscape:export-ydpi="250"><metadata
     id="metadata3010"><rdf:RDF><cc:Work
         rdf:about=""><dc:format>image/svg+xml</dc:format><dc:type
           rdf:resource="http://purl.org/dc/dcmitype/StillImage" /><dc:title></dc:title></cc:Work></rdf:RDF></metadata><defs
     id="defs3008"><clipPath
       clipPathUnits="userSpaceOnUse"
       id="clipPath3018"><path
         d="m 0,595.28 841.89,0 L 841.89,0 0,0 0,595.28 z"
         id="path3020" /></clipPath><clipPath
       clipPathUnits="userSpaceOnUse"
       id="clipPath3050"><path
         d="m 0,595.28 841.89,0 L 841.89,0 0,0 0,595.28 z"
         id="path3052" /></clipPath><clipPath
       clipPathUnits="userSpaceOnUse"
       id="clipPath3078"><path
         d="m 0,595.28 841.89,0 L 841.89,0 0,0 0,595.28 z"
         id="path3080" /></clipPath><clipPath
       clipPathUnits="userSpaceOnUse"
       id="clipPath3106"><path
         d="m 0,595.28 841.89,0 L 841.89,0 0,0 0,595.28 z"
         id="path3108" /></clipPath><clipPath
       clipPathUnits="userSpaceOnUse"
       id="clipPath3134"><path
         d="m 0,595.28 841.89,0 L 841.89,0 0,0 0,595.28 z"
         id="path3136" /></clipPath><clipPath
       clipPathUnits="userSpaceOnUse"
       id="clipPath3162"><path
         d="m 0,595.28 841.89,0 L 841.89,0 0,0 0,595.28 z"
         id="path3164" /></clipPath><clipPath
       clipPathUnits="userSpaceOnUse"
       id="clipPath3190"><path
         d="m 0,595.28 841.89,0 L 841.89,0 0,0 0,595.28 z"
         id="path3192" /></clipPath><clipPath
       clipPathUnits="userSpaceOnUse"
       id="clipPath3218"><path
         d="m 0,595.28 841.89,0 L 841.89,0 0,0 0,595.28 z"
         id="path3220" /></clipPath><clipPath
       clipPathUnits="userSpaceOnUse"
       id="clipPath3238"><path
         d="m 48.2681,581.494 503.6659,0 0,-39.133 -503.6659,0 0,39.133 z"
         id="path3240" /></clipPath><clipPath
       clipPathUnits="userSpaceOnUse"
       id="clipPath3266"><path
         d="m 62.8862,290.493 503.6658,0 0,-39.132 -503.6658,0 0,39.132 z"
         id="path3268" /></clipPath><clipPath
       clipPathUnits="userSpaceOnUse"
       id="clipPath3288"><path
         d="m 0,595.28 841.89,0 L 841.89,0 0,0 0,595.28 z"
         id="path3290" /></clipPath><clipPath
       clipPathUnits="userSpaceOnUse"
       id="clipPath3310"><path
         d="m 0,595.28 841.89,0 L 841.89,0 0,0 0,595.28 z"
         id="path3312" /></clipPath><clipPath
       clipPathUnits="userSpaceOnUse"
       id="clipPath3326"><path
         d="m 0,595.28 841.89,0 L 841.89,0 0,0 0,595.28 z"
         id="path3328" /></clipPath></defs><sodipodi:namedview
     pagecolor="#ffffff"
     bordercolor="#666666"
     borderopacity="1"
     objecttolerance="10"
     gridtolerance="10"
     guidetolerance="10"
     inkscape:pageopacity="0"
     inkscape:pageshadow="2"
     inkscape:window-width="1920"
     inkscape:window-height="1176"
     id="namedview3006"
     showgrid="false"
     inkscape:zoom="0.66993686"
     inkscape:cx="851.62193"
     inkscape:cy="594.96179"
     inkscape:window-x="0"
     inkscape:window-y="24"
     inkscape:window-maximized="1"
     inkscape:current-layer="g3012" /><g
     id="g3012"
     inkscape:groupmode="layer"
     inkscape:label="LocalClustering"
     transform="matrix(1.25,0,0,-1.25,0,744.1)"><g
       id="g3014"><g
         id="g3016"
         clip-path="url(#clipPath3018)"><g
           id="g3022"
           transform="translate(62.8867,344.5713)"><path
             d="M 0,0 C 0,0 22.772,0.799 25.886,7.799 29,14.799 62,138.683 62,138.683 c 0,0 5,17.07 10,13.593 C 77,148.799 92,-0.799 106,0 c 14,0.799 40.805,0 40.805,0 0,0 15.195,5.114 17.195,11.457 2,6.342 17,27.668 17,27.668 0,0 6,4.96 10,5.317 4,0.357 11,-44.248 30,-44.445 19,-0.198 27.935,0 27.935,0 0,0 10.719,1.802 14.392,5.802 3.673,4 24.673,90 28.673,90 4,0 22,-95.78 31,-95.89 9,-0.11 28.523,0.091 28.523,0.091 0,0 20.061,29.114 20.269,31.957 C 372,34.799 381,-0.047 389,-0.124 397,-0.201 413.328,0 413.328,0"
             style="fill:#00a85a;fill-opacity:1;fill-rule:nonzero;stroke:#373535;stroke-opacity:1;stroke-width:3;stroke-linecap:butt;stroke-linejoin:miter;stroke-miterlimit:10;stroke-dasharray:none"
             id="path3024" /></g><g
           id="g3026"
           transform="translate(473.9727,378.438)"><path
             d="M 0,0 C 0,0 22,-40 23,-41"
             style="fill:#ffffff;fill-opacity:1;fill-rule:nonzero;stroke:#373535;stroke-opacity:1;stroke-width:3;stroke-linecap:butt;stroke-linejoin:miter;stroke-miterlimit:10;stroke-dasharray:none"
             id="path3028" /></g><g
           id="g3030"
           transform="translate(496.9727,378.438)"><path
             d="M 0,0 C 0,0 22,-40 23,-41"
             style="fill:#ffffff;fill-opacity:1;fill-rule:nonzero;stroke:#373535;stroke-opacity:1;stroke-width:3;stroke-linecap:butt;stroke-linejoin:miter;stroke-miterlimit:10;stroke-dasharray:none"
             id="path3032" /></g><g
           id="g3034"
           transform="translate(518.6133,348.4067)"><path
             d="m 0,0 7.555,0 c 0,0 9.57,0.704 12.59,13.382 3.021,12.677 6.044,47.892 12.591,48.597 6.545,0.705 14.604,-44.372 14.604,-46.485 0,-2.112 2.517,-12.679 7.555,-15.494 5.035,-2.817 18.128,-1.41 20.646,0 0,0 5.324,13.052 13.383,13.052 8.058,0 7.555,-14.25 14.603,-14.68 7.053,-0.428 19.137,0 19.137,0 0,0 5.541,17.701 8.563,17.701 3.021,0 4.027,-18.156 11.582,-17.889 7.554,0.262 14.603,-0.005 14.603,-0.005 0,0 4.533,10.341 9.067,10.341 4.531,0 0.951,-10.106 6.517,-10.341 5.568,-0.235 17.152,0 17.152,0"
             style="fill:#fff215;fill-opacity:1;fill-rule:nonzero;stroke:#373535;stroke-opacity:1;stroke-width:3;stroke-linecap:butt;stroke-linejoin:miter;stroke-miterlimit:10;stroke-dasharray:none"
             id="path3036" /></g><g
           id="g3038"
           transform="translate(170.3862,512.3506)"><path
             d="M 0,0 -14.393,-27.187"
             style="fill:none;stroke:#7a563b;stroke-opacity:1;stroke-width:3;stroke-linecap:butt;stroke-linejoin:miter;stroke-miterlimit:10;stroke-dasharray:none"
             id="path3040" /></g></g></g><text
       transform="matrix(1,0,0,-1,163.1899,516.4258)"
       id="text3042"><tspan
         style="fill:#ee3338;fill-opacity:1;fill-rule:nonzero;stroke:none;font-family:Myriad Pro Cond;font-variant:normal;font-weight:bold;font-stretch:condensed;font-size:21;writing-mode:lr;-inkscape-font-specification:MyriadPro-BoldCond"
         x="0 8.295 13.188 16.527"
         y="0"
         sodipodi:role="line"
         id="tspan3044">C. 3</tspan></text>
<g
       id="g3046"><g
         id="g3048"
         clip-path="url(#clipPath3050)"><g
           id="g3054"
           transform="translate(170.918,518.9458)" /><g
           id="g3058"
           transform="translate(174.0889,516.2578)"><path
             d="m 0,0 c 0.966,0 1.617,0.714 1.617,1.827 0,1.134 -0.714,1.827 -1.596,1.827 -0.84,0 -1.617,-0.777 -1.617,-1.827 C -1.596,0.714 -0.861,0 0,0 z"
             style="fill:none;stroke:#ee3338;stroke-opacity:1;stroke-width:1;stroke-linecap:butt;stroke-linejoin:miter;stroke-miterlimit:10;stroke-dasharray:none"
             id="path3060" /></g><g
           id="g3062"
           transform="translate(180.2202,516.8667)" /><g
           id="g3066"
           transform="translate(276.7471,423.7285)"><path
             d="M 0,0 -14.393,-27.187"
             style="fill:none;stroke:#7a563b;stroke-opacity:1;stroke-width:3;stroke-linecap:butt;stroke-linejoin:miter;stroke-miterlimit:10;stroke-dasharray:none"
             id="path3068" /></g></g></g><text
       transform="matrix(1,0,0,-1,269.5508,429.0449)"
       id="text3070"><tspan
         style="fill:#00b0f0;fill-opacity:1;fill-rule:nonzero;stroke:none;font-family:Myriad Pro Cond;font-variant:normal;font-weight:bold;font-stretch:condensed;font-size:21;writing-mode:lr;-inkscape-font-specification:MyriadPro-BoldCond"
         x="0 8.295 13.188 16.527"
         y="0"
         sodipodi:role="line"
         id="tspan3072">C. 1</tspan></text>
<g
       id="g3074"><g
         id="g3076"
         clip-path="url(#clipPath3078)"><g
           id="g3082"
           transform="translate(277.2788,431.5649)" /><g
           id="g3086"
           transform="translate(280.4497,428.877)"><path
             d="m 0,0 c 0.966,0 1.617,0.714 1.617,1.827 0,1.134 -0.714,1.827 -1.596,1.827 -0.84,0 -1.617,-0.777 -1.617,-1.827 C -1.596,0.714 -0.861,0 0,0 z"
             style="fill:none;stroke:#00b0f0;stroke-opacity:1;stroke-width:1;stroke-linecap:butt;stroke-linejoin:miter;stroke-miterlimit:10;stroke-dasharray:none"
             id="path3088" /></g><g
           id="g3090"
           transform="translate(289.8359,429.0449)" /><g
           id="g3094"
           transform="translate(450.3281,420.8721)"><path
             d="M 0,0 -14.393,-27.187"
             style="fill:none;stroke:#7a563b;stroke-opacity:1;stroke-width:3;stroke-linecap:butt;stroke-linejoin:miter;stroke-miterlimit:10;stroke-dasharray:none"
             id="path3096" /></g></g></g><text
       transform="matrix(1,0,0,-1,443.1318,426.1885)"
       id="text3098"><tspan
         style="fill:#00b0f0;fill-opacity:1;fill-rule:nonzero;stroke:none;font-family:Myriad Pro Cond;font-variant:normal;font-weight:bold;font-stretch:condensed;font-size:21;writing-mode:lr;-inkscape-font-specification:MyriadPro-BoldCond"
         x="0 8.295 13.188 16.527"
         y="0"
         sodipodi:role="line"
         id="tspan3100">C. 1</tspan></text>
<g
       id="g3102"><g
         id="g3104"
         clip-path="url(#clipPath3106)"><g
           id="g3110"
           transform="translate(450.8599,428.7085)" /><g
           id="g3114"
           transform="translate(454.0308,426.0205)"><path
             d="m 0,0 c 0.966,0 1.617,0.714 1.617,1.827 0,1.134 -0.714,1.827 -1.596,1.827 -0.84,0 -1.617,-0.777 -1.617,-1.827 C -1.596,0.714 -0.861,0 0,0 z"
             style="fill:none;stroke:#00b0f0;stroke-opacity:1;stroke-width:1;stroke-linecap:butt;stroke-linejoin:miter;stroke-miterlimit:10;stroke-dasharray:none"
             id="path3116" /></g><g
           id="g3118"
           transform="translate(463.417,426.1885)" /><g
           id="g3122"
           transform="translate(566.3262,447.9546)"><path
             d="M 0,0 -14.393,-27.187"
             style="fill:none;stroke:#7a563b;stroke-opacity:1;stroke-width:3;stroke-linecap:butt;stroke-linejoin:miter;stroke-miterlimit:10;stroke-dasharray:none"
             id="path3124" /></g></g></g><text
       transform="matrix(1,0,0,-1,559.1309,453.2715)"
       id="text3126"><tspan
         style="fill:#f1623b;fill-opacity:1;fill-rule:nonzero;stroke:none;font-family:Myriad Pro Cond;font-variant:normal;font-weight:bold;font-stretch:condensed;font-size:21;writing-mode:lr;-inkscape-font-specification:MyriadPro-BoldCond"
         x="0 8.295 13.188 16.527"
         y="0"
         sodipodi:role="line"
         id="tspan3128">C. 2</tspan></text>
<g
       id="g3130"><g
         id="g3132"
         clip-path="url(#clipPath3134)"><g
           id="g3138"
           transform="translate(566.8589,455.7915)" /><g
           id="g3142"
           transform="translate(570.0298,453.1035)"><path
             d="m 0,0 c 0.966,0 1.617,0.714 1.617,1.827 0,1.134 -0.714,1.827 -1.596,1.827 -0.84,0 -1.617,-0.777 -1.617,-1.827 C -1.596,0.714 -0.861,0 0,0 z"
             style="fill:none;stroke:#f1623b;stroke-opacity:1;stroke-width:1;stroke-linecap:butt;stroke-linejoin:miter;stroke-miterlimit:10;stroke-dasharray:none"
             id="path3144" /></g><g
           id="g3146"
           transform="translate(583.6372,453.2715)" /><g
           id="g3150"
           transform="translate(623.9463,419.543)"><path
             d="M 0,0 -14.393,-27.187"
             style="fill:none;stroke:#7a563b;stroke-opacity:1;stroke-width:3;stroke-linecap:butt;stroke-linejoin:miter;stroke-miterlimit:10;stroke-dasharray:none"
             id="path3152" /></g></g></g><text
       transform="matrix(1,0,0,-1,616.75,424.8594)"
       id="text3154"><tspan
         style="fill:#00b0f0;fill-opacity:1;fill-rule:nonzero;stroke:none;font-family:Myriad Pro Cond;font-variant:normal;font-weight:bold;font-stretch:condensed;font-size:21;writing-mode:lr;-inkscape-font-specification:MyriadPro-BoldCond"
         x="0 8.295 13.188 16.527"
         y="0"
         sodipodi:role="line"
         id="tspan3156">C. 1</tspan></text>
<g
       id="g3158"><g
         id="g3160"
         clip-path="url(#clipPath3162)"><g
           id="g3166"
           transform="translate(624.478,427.3794)" /><g
           id="g3170"
           transform="translate(627.6489,424.6914)"><path
             d="m 0,0 c 0.966,0 1.617,0.714 1.617,1.827 0,1.134 -0.714,1.827 -1.596,1.827 -0.84,0 -1.617,-0.777 -1.617,-1.827 C -1.596,0.714 -0.861,0 0,0 z"
             style="fill:none;stroke:#00b0f0;stroke-opacity:1;stroke-width:1;stroke-linecap:butt;stroke-linejoin:miter;stroke-miterlimit:10;stroke-dasharray:none"
             id="path3172" /></g><g
           id="g3174"
           transform="translate(637.0352,424.8594)" /><g
           id="g3178"
           transform="translate(670.9463,416.8848)"><path
             d="M 0,0 -14.393,-27.187"
             style="fill:none;stroke:#7a563b;stroke-opacity:1;stroke-width:3;stroke-linecap:butt;stroke-linejoin:miter;stroke-miterlimit:10;stroke-dasharray:none"
             id="path3180" /></g></g></g><text
       transform="matrix(1,0,0,-1,663.75,422.2012)"
       id="text3182"><tspan
         style="fill:#00b0f0;fill-opacity:1;fill-rule:nonzero;stroke:none;font-family:Myriad Pro Cond;font-variant:normal;font-weight:bold;font-stretch:condensed;font-size:21;writing-mode:lr;-inkscape-font-specification:MyriadPro-BoldCond"
         x="0 8.295 13.188 16.527"
         y="0"
         sodipodi:role="line"
         id="tspan3184">C. 1</tspan></text>
<g
       id="g3186"><g
         id="g3188"
         clip-path="url(#clipPath3190)"><g
           id="g3194"
           transform="translate(671.478,424.7212)" /><g
           id="g3198"
           transform="translate(674.6489,422.0332)"><path
             d="m 0,0 c 0.966,0 1.617,0.714 1.617,1.827 0,1.134 -0.714,1.827 -1.596,1.827 -0.84,0 -1.617,-0.777 -1.617,-1.827 C -1.596,0.714 -0.861,0 0,0 z"
             style="fill:none;stroke:#00b0f0;stroke-opacity:1;stroke-width:1;stroke-linecap:butt;stroke-linejoin:miter;stroke-miterlimit:10;stroke-dasharray:none"
             id="path3200" /></g><g
           id="g3202"
           transform="translate(684.0352,422.2012)" /><g
           id="g3206"
           transform="translate(711.8232,416.8848)"><path
             d="M 0,0 -14.393,-27.187"
             style="fill:none;stroke:#7a563b;stroke-opacity:1;stroke-width:3;stroke-linecap:butt;stroke-linejoin:miter;stroke-miterlimit:10;stroke-dasharray:none"
             id="path3208" /></g></g></g><text
       transform="matrix(1,0,0,-1,704.6279,422.2012)"
       id="text3210"><tspan
         style="fill:#00b0f0;fill-opacity:1;fill-rule:nonzero;stroke:none;font-family:Myriad Pro Cond;font-variant:normal;font-weight:bold;font-stretch:condensed;font-size:21;writing-mode:lr;-inkscape-font-specification:MyriadPro-BoldCond"
         x="0 8.295 13.188 16.527"
         y="0"
         sodipodi:role="line"
         id="tspan3212">C. 1</tspan></text>
<g
       clip-path="url(#clipPath3218)"
       id="g3216"><g
         transform="translate(712.356,424.7212)"
         id="g3222" /><g
         transform="translate(715.5269,422.0332)"
         id="g3226"><path
           inkscape:connector-curvature="0"
           id="path3228"
           style="fill:none;stroke:#00b0f0;stroke-width:1;stroke-linecap:butt;stroke-linejoin:miter;stroke-miterlimit:10;stroke-opacity:1;stroke-dasharray:none"
           d="m 0,0 c 0.966,0 1.617,0.714 1.617,1.827 0,1.134 -0.714,1.827 -1.596,1.827 -0.84,0 -1.617,-0.777 -1.617,-1.827 C -1.596,0.714 -0.861,0 0,0 z" /></g><g
         transform="translate(724.9131,422.2012)"
         id="g3230" /><g
         id="g3234"><g
           id="g3236" /><g
           id="g3242"><g
             style="opacity:0.80000299"
             id="g3244"
             clip-path="url(#clipPath3238)" /></g></g><g
         transform="translate(474.4746,77.3936)"
         id="g3250"><path
           inkscape:connector-curvature="0"
           id="path3252"
           style="fill:#ffffff;fill-opacity:1;fill-rule:nonzero;stroke:#373535;stroke-width:3;stroke-linecap:butt;stroke-linejoin:miter;stroke-miterlimit:10;stroke-opacity:1;stroke-dasharray:none"
           d="M 0,0 C 0,0 22,-40 23,-41" /></g><g
         transform="translate(497.4746,77.3936)"
         id="g3254"><path
           inkscape:connector-curvature="0"
           id="path3256"
           style="fill:#ffffff;fill-opacity:1;fill-rule:nonzero;stroke:#373535;stroke-width:3;stroke-linecap:butt;stroke-linejoin:miter;stroke-miterlimit:10;stroke-opacity:1;stroke-dasharray:none"
           d="M 0,0 C 0,0 22,-40 23,-41" /></g><g
         transform="translate(519.1152,47.3623)"
         id="g3258"><path
           inkscape:connector-curvature="0"
           id="path3260"
           style="fill:#fff215;fill-opacity:1;fill-rule:nonzero;stroke:#373535;stroke-width:3;stroke-linecap:butt;stroke-linejoin:miter;stroke-miterlimit:10;stroke-opacity:1;stroke-dasharray:none"
           d="m 0,0 7.555,0 c 0,0 9.57,0.703 12.59,13.381 3.021,12.678 6.044,47.892 12.591,48.598 6.545,0.705 14.604,-44.372 14.604,-46.485 0,-2.113 2.517,-12.68 7.555,-15.494 5.035,-2.818 18.128,-1.41 20.646,0 0,0 5.324,13.051 13.383,13.051 8.058,0 7.555,-14.25 14.603,-14.68 7.053,-0.428 19.137,0 19.137,0 0,0 5.541,17.701 8.563,17.701 3.021,0 4.027,-18.156 11.582,-17.888 7.554,0.261 14.603,-0.006 14.603,-0.006 0,0 4.533,10.342 9.067,10.342 4.531,0 0.951,-10.106 6.517,-10.342 5.568,-0.235 17.152,0 17.152,0" /></g><g
         id="g3262"><g
           id="g3264" /><g
           id="g3270"><g
             style="opacity:0.80000299"
             id="g3272"
             clip-path="url(#clipPath3266)" /></g></g></g><text
       transform="scale(1,-1)"
       sodipodi:linespacing="125%"
       id="text3370"
       y="-560.64984"
       x="33.435989"
       style="font-size:32px;font-style:normal;font-weight:normal;line-height:125%;letter-spacing:0px;word-spacing:0px;fill:#000000;fill-opacity:1;stroke:none;font-family:Sans"
       xml:space="preserve"><tspan
         style="font-size:32px;font-style:normal;font-variant:normal;font-weight:bold;font-stretch:normal;text-align:start;line-height:125%;writing-mode:lr-tb;text-anchor:start;font-family:Latin Modern Mono Caps;-inkscape-font-specification:Latin Modern Mono Caps Bold"
         y="-560.64984"
         x="33.435989"
         id="tspan3372"
         sodipodi:role="line">Component Clustering</tspan></text>
<g
       id="g3306"><g
         id="g3308"
         clip-path="url(#clipPath3310)"><g
           id="g3314"
           transform="translate(386.3271,447.9546)"><path
             d="M 0,0 -14.393,-27.187"
             style="fill:none;stroke:#7a563b;stroke-opacity:1;stroke-width:3;stroke-linecap:butt;stroke-linejoin:miter;stroke-miterlimit:10;stroke-dasharray:none"
             id="path3316" /></g></g></g><text
       transform="matrix(1,0,0,-1,379.1318,453.2715)"
       id="text3318"><tspan
         style="fill:#f1623b;fill-opacity:1;fill-rule:nonzero;stroke:none;font-family:Myriad Pro Cond;font-variant:normal;font-weight:bold;font-stretch:condensed;font-size:21;writing-mode:lr;-inkscape-font-specification:MyriadPro-BoldCond"
         x="0 8.295 13.188 16.527"
         y="0"
         sodipodi:role="line"
         id="tspan3320">C. 2</tspan></text>
<g
       clip-path="url(#clipPath3326)"
       id="g3324"><g
         transform="translate(386.8599,455.7915)"
         id="g3330" /><g
         transform="translate(390.0308,453.1035)"
         id="g3334"><path
           inkscape:connector-curvature="0"
           id="path3336"
           style="fill:none;stroke:#f1623b;stroke-width:1;stroke-linecap:butt;stroke-linejoin:miter;stroke-miterlimit:10;stroke-opacity:1;stroke-dasharray:none"
           d="m 0,0 c 0.966,0 1.617,0.714 1.617,1.827 0,1.134 -0.714,1.827 -1.596,1.827 -0.84,0 -1.617,-0.777 -1.617,-1.827 C -1.596,0.714 -0.861,0 0,0 z" /></g><g
         transform="translate(403.6382,453.2715)"
         id="g3338" /><g
         transform="translate(63.3882,45.5791)"
         id="g3342"><path
           inkscape:connector-curvature="0"
           id="path3344"
           style="fill:#00a85a;fill-opacity:1;fill-rule:nonzero;stroke:#373535;stroke-width:3;stroke-linecap:butt;stroke-linejoin:miter;stroke-miterlimit:10;stroke-opacity:1;stroke-dasharray:none"
           d="M 0,0 C 0,0 22.772,0.799 25.886,7.799 29,14.799 62,138.682 62,138.682 c 0,0 5,17.07 10,13.593 C 77,148.799 92,-0.799 106,0 c 14,0.799 40.805,0 40.805,0 0,0 15.195,5.113 17.195,11.456 2,6.343 17,27.669 17,27.669 0,0 6,4.959 10,5.316 4,0.358 11,-44.248 30,-44.445 19,-0.197 27.935,0 27.935,0 0,0 10.719,1.803 14.392,5.803 3.673,4 24.673,90 28.673,90 4,0 22,-95.781 31,-95.891 9,-0.109 28.523,0.092 28.523,0.092 0,0 20.061,29.113 20.269,31.956 C 372,34.799 381,-0.047 389,-0.125 397,-0.201 413.329,0 413.329,0" /></g></g><rect
       ry="10.57459"
       y="-536.9024"
       x="79.246071"
       height="200.28969"
       width="396.78412"
       id="rect4806"
       style="opacity:0.17407406;fill:#d4aa00;stroke:none"
       transform="scale(1,-1)" /><rect
       ry="10.57459"
       y="-538.99219"
       x="522.87"
       height="200.28969"
       width="219.45398"
       id="rect4806-5"
       style="opacity:0.17407406000000000;fill:#c8b7b7;stroke:none"
       transform="scale(1,-1)" /><g
       id="g15034"><g
         id="g15011"><text
           transform="scale(1,-1)"
           sodipodi:linespacing="125%"
           id="text3370-8"
           y="-276.81821"
           x="40.824177"
           style="font-size:32px;font-style:normal;font-weight:normal;line-height:125%;letter-spacing:0px;word-spacing:0px;fill:#000000;fill-opacity:1;stroke:none;font-family:Sans"
           xml:space="preserve"><tspan
             style="font-size:32px;font-style:normal;font-variant:normal;font-weight:bold;font-stretch:normal;text-align:start;line-height:125%;writing-mode:lr-tb;text-anchor:start;font-family:Latin Modern Mono Caps;-inkscape-font-specification:Latin Modern Mono Caps Bold"
             y="-276.81821"
             x="40.824177"
             id="tspan3372-5"
             sodipodi:role="line">Local Clustering</tspan></text>
<text
           transform="matrix(0.0392394,-0.99922984,-0.99922984,-0.0392394,0,0)"
           id="text3278"
           x="-219.5224"
           y="-125.52157"
           style="font-size:12px"><tspan
             style="font-size:55.60992813px;font-variant:normal;font-weight:bold;font-stretch:condensed;writing-mode:lr-tb;fill:#ee3338;fill-opacity:1;fill-rule:nonzero;stroke:none;font-family:Myriad Pro Cond;-inkscape-font-specification:MyriadPro-BoldCond"
             x="-219.5224"
             y="-125.52157"
             id="tspan3280">{</tspan><tspan
             style="font-size:55.60992813px;font-variant:normal;font-weight:bold;font-stretch:condensed;writing-mode:lr-tb;fill:#ee3338;fill-opacity:1;fill-rule:nonzero;stroke:none;font-family:Myriad Pro Cond;-inkscape-font-specification:MyriadPro-BoldCond"
             x="-203.11748"
             y="-543.2077"
             id="tspan3282">{</tspan></text>
<g
           id="g3284"><g
             id="g3286"
             clip-path="url(#clipPath3288)"><text
               transform="matrix(-0.00648974,0.2309338,0.99997894,0.02809066,402.5405,156.9522)"
               id="text3292"><tspan
                 style="fill:#fcb24c;fill-opacity:1;fill-rule:nonzero;stroke:none;font-family:Myriad Pro Cond;font-variant:normal;font-weight:bold;font-stretch:condensed;font-size:214.43071561;writing-mode:lr;-inkscape-font-specification:MyriadPro-BoldCond"
                 x="0"
                 y="0"
                 id="tspan3294">}</tspan></text>
<text
               transform="matrix(-0.0099489,0.35403226,0.99995051,0.0280894,684.8005,156.952)"
               id="text3296"><tspan
                 style="fill:#fcb24c;fill-opacity:1;fill-rule:nonzero;stroke:none;font-family:Myriad Pro Cond;font-variant:normal;font-weight:bold;font-stretch:condensed;font-size:139.87482261;writing-mode:lr;-inkscape-font-specification:MyriadPro-BoldCond"
                 x="0"
                 y="0"
                 id="tspan3298">}</tspan></text>
</g></g><text
           xml:space="preserve"
           style="font-size:32px;font-style:normal;font-weight:normal;line-height:125%;letter-spacing:0px;word-spacing:0px;fill:#000000;fill-opacity:1;stroke:none;font-family:Sans"
           x="106.27867"
           y="-225.09586"
           id="text3395"
           sodipodi:linespacing="125%"
           transform="scale(1,-1)"><tspan
             sodipodi:role="line"
             id="tspan3397"
             x="106.27867"
             y="-225.09586"
             style="font-size:19.20000076px;font-style:normal;font-variant:normal;font-weight:bold;font-stretch:normal;text-align:start;line-height:125%;writing-mode:lr-tb;text-anchor:start;font-family:Latin Modern Mono Caps;-inkscape-font-specification:Latin Modern Mono Caps Bold">Direct</tspan></text>
<text
           xml:space="preserve"
           style="font-size:32px;font-style:normal;font-weight:normal;line-height:125%;letter-spacing:0px;word-spacing:0px;fill:#000000;fill-opacity:1;stroke:none;font-family:Sans"
           x="518.00616"
           y="-225.27777"
           id="text3395-6"
           sodipodi:linespacing="125%"
           transform="scale(1,-1)"><tspan
             sodipodi:role="line"
             id="tspan3397-5"
             x="518.00616"
             y="-225.27777"
             style="font-size:19.20000076px;font-style:normal;font-variant:normal;font-weight:bold;font-stretch:normal;text-align:start;line-height:125%;writing-mode:lr-tb;text-anchor:start;font-family:Latin Modern Mono Caps;-inkscape-font-specification:Latin Modern Mono Caps Bold">Direct</tspan></text>
<text
           xml:space="preserve"
           style="font-size:32px;font-style:normal;font-weight:normal;line-height:125%;letter-spacing:0px;word-spacing:0px;fill:#000000;fill-opacity:1;stroke:none;font-family:Sans"
           x="307.24005"
           y="-188.85643"
           id="text3395-3"
           sodipodi:linespacing="125%"
           transform="scale(1,-1)"><tspan
             sodipodi:role="line"
             id="tspan3397-2"
             x="307.24005"
             y="-188.85643"
             style="font-size:19.20000076px;font-style:normal;font-variant:normal;font-weight:bold;font-stretch:normal;text-align:start;line-height:125%;writing-mode:lr-tb;text-anchor:start;font-family:Latin Modern Mono Caps;-inkscape-font-specification:Latin Modern Mono Caps Bold">Indirect</tspan></text>
<text
           xml:space="preserve"
           style="font-size:32px;font-style:normal;font-weight:normal;line-height:125%;letter-spacing:0px;word-spacing:0px;fill:#000000;fill-opacity:1;stroke:none;font-family:Sans"
           x="598.69458"
           y="-191.24472"
           id="text3395-3-0"
           sodipodi:linespacing="125%"
           transform="scale(1,-1)"><tspan
             sodipodi:role="line"
             id="tspan3397-2-7"
             x="598.69458"
             y="-191.24472"
             style="font-size:19.20000076px;font-style:normal;font-variant:normal;font-weight:bold;font-stretch:normal;text-align:start;line-height:125%;writing-mode:lr-tb;text-anchor:start;font-family:Latin Modern Mono Caps;-inkscape-font-specification:Latin Modern Mono Caps Bold">Indirect</tspan></text>
<rect
           ry="10.57459"
           y="-239.26248"
           x="76.260681"
           height="200.28969"
           width="396.78412"
           id="rect4806-6"
           style="opacity:0.17407406;fill:#d4aa00;stroke:none"
           transform="scale(1,-1)"
           inkscape:transform-center-x="-415.71082"
           inkscape:transform-center-y="-388.84262" /><rect
           ry="10.57459"
           y="-241.65073"
           x="514.2124"
           height="200.28969"
           width="219.45398"
           id="rect4806-5-8"
           style="opacity:0.17407406;fill:#c8b7b7;stroke:none"
           transform="scale(1,-1)" /></g></g></g></svg>